<?xml version="1.0" encoding="UTF-8"?>
<svg width="111px" height="13px" viewBox="0 0 111 13" version="1.1" xmlns="http://www.w3.org/2000/svg" xmlns:xlink="http://www.w3.org/1999/xlink">
    <!-- Generator: Sketch 53.2 (72643) - https://sketchapp.com -->
    <title>mb_texto_no</title>
    <desc>Created with Sketch.</desc>
    <g id="Symbols" stroke="none" stroke-width="1" fill="none" fill-rule="evenodd">
        <g id="logo-simple" transform="translate(-137.000000, -47.000000)" fill="#FFFFFF" fill-rule="nonzero">
            <g id="mb_texto_no" transform="translate(137.000000, 47.000000)">
                <rect id="Rectangle" x="70.8" y="7.18" width="4.1" height="1"></rect>
                <path d="M2.5,1.38 L2.1,10.88 L2.1,11.08 C2.1,11.88 2.3,12.08 3.6,12.18 L3.6,12.58 C3.00287992,12.5068044 2.40155331,12.4733974 1.8,12.48 C1.19844669,12.4733974 0.597120077,12.5068044 0,12.58 L0,12.18 C1.3,12.08 1.5,11.98 1.5,10.98 L1.9,1.98 L1.9,1.88 C1.9,1.08 1.6,0.88 0.4,0.78 L0.4,0.28 C0.896144866,0.356851763 1.39804423,0.390311721 1.9,0.38 C2.46850251,0.396569512 3.03736083,0.363107259 3.6,0.28 L7,9.58 L10.5,0.28 C11.0966889,0.357935283 11.6983502,0.391360906 12.3,0.38 C12.8019558,0.390311721 13.3038551,0.356851763 13.8,0.28 L13.8,0.78 C12.6,0.88 12.3,1.08 12.3,1.88 L12.3,2 L12.5,11 C12.5,12 12.7,12.1 14,12.2 L14,12.6 C13.235604,12.5265484 12.4678865,12.4931694 11.7,12.5 C10.9321135,12.4931694 10.164396,12.5265484 9.4,12.6 L9.4,12.2 C10.6,12.1 10.9,11.9 10.9,11.1 L10.9,11 L10.7,1.5 L7.6,9.6 L7.4,10.2 L7.1,10.9 L6.9,11.6 L6.7,12.2 L6.4,12.2 L6.2,11.6 L5.9,10.9 L5.7,10.2 L5.5,9.5 L2.5,1.38 Z M18.7,12.18 C17,12.18 16.3,10.88 16.3,7.98 L21.8,7.98 C21.8,5.18 20.6,3.68 18.4,3.68 C16.2,3.68 14.8,5.48 14.8,8.28 C14.8,11.08 16.2,12.78 18.5,12.78 C19.3296975,12.8354386 20.1451859,12.5440158 20.7518308,11.9752862 C21.3584757,11.4065566 21.7018501,10.6115455 21.7,9.78 L21,9.78 C20.8,11.28 20,12.18 18.7,12.18 L18.7,12.18 Z M16.3,7.28 C16.5,5.18 17.2,4.08 18.4,4.08 C19.6,4.08 20.2,5.08 20.3,7.28 L16.3,7.28 Z M22.8,4.28 L22.8,4 C23.6105613,3.94044428 24.4139374,3.80654827 25.2,3.6 C25.3,4.3 25.3,4.6 25.4,5.1 L25.4,5.3 C25.6914188,4.36053816 26.5204501,3.68941759 27.5,3.6 C27.9148487,3.57228072 28.322593,3.71799211 28.6259154,4.0023569 C28.9292378,4.28672169 29.100925,4.68422725 29.1,5.1 C29.1223488,5.32753006 29.0486931,5.55405942 28.8968029,5.72493588 C28.7449127,5.89581235 28.5285811,5.99551873 28.3,6 C27.9,6 27.5,5.7 27.5,5.4 L27.5,4.9 C27.5,4.6 27.3,4.5 26.9,4.5 C25.9,4.5 25.3,5.7 25.3,7.5 L25.3,11.3 C25.3,12.1 25.5,12.2 26.6,12.3 L26.6,12.7 C25.9360007,12.625859 25.2680832,12.5924631 24.6,12.6 C23.8986437,12.5920686 23.1974291,12.6254598 22.5,12.7 L22.5,12.3 C23.6,12.2 23.8,12.1 23.8,11.3 L23.8,5.2 C23.8,4.4 23.7,4.3 22.7,4.3 L22.8,4.28 Z M36.2,3.48 L36.2,6.48 L35.8,6.48 C35.5,4.88 34.8,4.08 33.7,4.08 C32.3,4.08 31.5,5.58 31.5,8.18 C31.5,10.78 32.2,12.08 33.6,12.08 C34.7,12.08 35.4,11.28 35.6,9.68 L36.4,9.68 C36.2,11.68 35.1,12.68 33.5,12.68 C31.4,12.68 29.9,10.88 29.9,8.18 C29.9,5.48 31.4,3.58 33.5,3.58 C34.2224798,3.54132336 34.9227793,3.83618629 35.4,4.38 L35.9,3.48 L36.2,3.48 Z M41.6,12.18 C39.9,12.18 39.2,10.88 39.2,7.98 L44.7,7.98 C44.7,5.18 43.5,3.68 41.3,3.68 C39.1,3.68 37.7,5.48 37.7,8.28 C37.7,11.08 39.1,12.78 41.4,12.78 C42.2296975,12.8354386 43.0451859,12.5440158 43.6518308,11.9752862 C44.2584757,11.4065566 44.6018501,10.6115455 44.6,9.78 L43.9,9.78 C43.7,11.28 42.9,12.18 41.6,12.18 L41.6,12.18 Z M39.2,7.28 C39.4,5.18 40.1,4.08 41.3,4.08 C42.5,4.08 43.1,5.08 43.2,7.28 L39.2,7.28 Z M53.2,10.68 L53.2,0.08 C52.2796025,0.312381022 51.3439411,0.479463417 50.4,0.58 L50.4,0.88 C51.6,0.88 51.7,0.98 51.7,1.98 L51.7,5.18 C51,4.08 50.5,3.78 49.5,3.78 C47.5,3.78 46.2,5.68 46.2,8.28 C46.2,10.88 47.6,12.78 49.6,12.78 C50.599564,12.7914804 51.5074987,12.1993491 51.9,11.28 C51.9518574,11.7884348 52.0523165,12.2907304 52.2,12.78 C52.8856593,12.5800734 53.5888559,12.4461312 54.3,12.38 L54.6,12.38 L54.6,12.08 C53.3,11.88 53.2,11.78 53.2,10.68 L53.2,10.68 Z M49.7,12.28 C48.4,12.28 47.7,10.88 47.7,8.28 C47.7,5.68 48.3,4.28 49.7,4.28 C51.1,4.28 51.8,5.68 51.8,8.38 C51.7,10.88 51,12.28 49.7,12.28 L49.7,12.28 Z M59.1,12.18 C57.4,12.18 56.7,10.88 56.7,7.98 L62.2,7.98 C62.2,5.18 61,3.68 58.8,3.68 C56.6,3.68 55.2,5.48 55.2,8.28 C55.2,11.08 56.6,12.78 58.9,12.78 C59.7296975,12.8354386 60.5451859,12.5440158 61.1518308,11.9752862 C61.7584757,11.4065566 62.1018501,10.6115455 62.1,9.78 L61.4,9.78 C61.2,11.28 60.4,12.18 59.1,12.18 L59.1,12.18 Z M56.7,7.28 C56.9,5.18 57.6,4.08 58.8,4.08 C60,4.08 60.6,5.08 60.7,7.28 L56.7,7.28 Z M63.7,12.78 L63.7,9.68 L64.1,9.68 C64.4,11.38 65.2,12.18 66.5,12.18 C66.9816263,12.2245615 67.4600676,12.0666377 67.8205285,11.7441201 C68.1809893,11.4216024 68.3909379,10.9635985 68.4,10.48 C68.4,9.88 68.1,9.48 67.2,8.98 L66.5,8.68 L65.6,8.38 C64.3,7.78 63.8,7.28 63.8,6.18 C63.8,4.68 64.9,3.78 66.6,3.78 C67.2778089,3.79340176 67.9374219,4.0017006 68.5,4.38 L68.8,3.58 L69.1,3.58 L69.1,6.38 L68.7,6.38 C68.5,4.88 67.9,4.18 66.8,4.18 C66.3748029,4.1498858 65.9553201,4.29176074 65.6356926,4.57378499 C65.3160652,4.85580923 65.123063,5.25436224 65.1,5.68 C65.1,6.38 65.4,6.68 67,7.38 L67.8,7.68 C69.2,8.28 69.7,8.88 69.7,9.98 C69.6767809,10.733707 69.3394311,11.4433625 68.7695927,11.9372224 C68.1997544,12.4310823 67.4493553,12.6641425 66.7,12.58 C65.8912926,12.6048114 65.103875,12.3184777 64.5,11.78 L64.1,12.58 L63.7,12.58 L63.7,12.78 Z M83.5,3.28 C83.532642,2.38491884 83.1209158,1.53152257 82.4,1 C81.6844885,0.460295847 80.7917375,0.210325584 79.9,0.3 L75.1,0.3 L75.1,0.8 C76.4,0.9 76.6,1 76.6,2 L76.6,10.9 C76.6,11.9 76.5,12 75.1,12.1 L75.1,12.5 L79.7,12.5 C80.7026459,12.5589932 81.7030783,12.3520072 82.6,11.9 C83.5478671,11.2400435 84.109122,10.1549508 84.1,9 C84.1398537,8.0698051 83.730669,7.17703866 83,6.6 C82.5642715,6.26660073 82.0454581,6.05907537 81.5,6 C82.7008128,5.6562368 83.5210834,4.54887148 83.5,3.3 L83.5,3.28 Z M78.1,0.9 L79.7,0.9 C81.2,0.9 81.9,1.7 81.9,3.4 C81.9485279,4.08654595 81.7340152,4.7658361 81.3,5.3 C80.9,5.8 80.4,5.9 79.4,5.9 L78.1,5.9 L78.1,0.9 Z M79.9,6.4 C80.5903548,6.31523359 81.2835301,6.53413105 81.8,7 C82.2838206,7.59000011 82.5330564,8.33770757 82.5,9.1 C82.5,10.9 81.6,12 79.9,12 L79.2,12 C78.2,12 78.1,11.9 78.1,11 L78.1,6.4 L79.9,6.4 Z M89.5,12.2 C87.8,12.2 87.1,10.9 87.1,8 L92.6,8 C92.5,5.2 91.4,3.7 89.2,3.7 C87,3.7 85.6,5.5 85.6,8.3 C85.6,11.1 87,12.8 89.3,12.8 C90.1296975,12.8554386 90.9451859,12.5640158 91.5518308,11.9952862 C92.1584757,11.4265566 92.5018501,10.6315455 92.5,9.8 L91.8,9.8 C91.6,11.3 90.8,12.2 89.5,12.2 L89.5,12.2 Z M87.1,7.3 C87.3,5.2 88,4.1 89.2,4.1 C90.4,4.1 91,5.1 91.1,7.3 L87.1,7.3 Z M93.5,4.4 L93.5,4.1 C94.3292768,4.04407078 95.1419655,3.84089861 95.9,3.5 C96,3.9 96,4.4 96.1,5.1 C96.6068521,4.20343951 97.5707285,3.66366873 98.6,3.7 C99.6355477,3.64666647 100.594161,4.24579971 101,5.2 C101.222543,5.73807657 101.324927,6.31825232 101.3,6.9 L101.3,11.3 C101.3,12.1 101.5,12.2 102.6,12.3 L102.6,12.7 C101.270017,12.5663317 99.9299832,12.5663317 98.6,12.7 L98.6,12.3 C99.6,12.3 99.8,12.1 99.8,11.3 L99.8,6.8 C99.8,5.2 99.3,4.6 98.1,4.6 C96.9,4.6 96.2,5.4 96.2,6.9 L96.2,11.3 C96.2,12 96.4,12.2 97.4,12.3 L97.4,12.7 C96.736172,12.6237583 96.0681223,12.5903558 95.4,12.6 C94.7319168,12.5924631 94.0639993,12.625859 93.4,12.7 L93.4,12.3 C94.5,12.2 94.7,12.1 94.7,11.3 L94.7,5.3 C94.7,4.5 94.6,4.4 93.7,4.4 L93.5,4.4 L93.5,4.4 Z M103.3,12.6 L108.3,4.4 L106,4.4 C104.8,4.4 104.5,4.7 103.9,6.3 L103.5,6.3 L103.9,3.9 L110.2,3.9 L105.2,12.1 L107.3,12.1 C108.5,12.1 109.1,11.6 109.6,9.9 L110,9.9 L109.5,12.5 L103.3,12.5 L103.3,12.6 Z" id="Shape"></path>
            </g>
        </g>
    </g>
</svg>