<?xml version="1.0" encoding="UTF-8"?>
<svg width="22px" height="22px" viewBox="0 0 22 22" version="1.1" xmlns="http://www.w3.org/2000/svg" xmlns:xlink="http://www.w3.org/1999/xlink">
    <!-- Generator: sketchtool 60.1 (101010) - https://sketch.com -->
    <title>B07E9E1C-8082-4E1D-AE35-CD47CFE63572</title>
    <desc>Created with sketchtool.</desc>
    <g id="Floreta-Web-Site" stroke="none" stroke-width="1" fill="none" fill-rule="evenodd">
        <g id="01---Floresta-/-Inicio" transform="translate(-1318.000000, -1878.000000)" fill="#999999" fill-rule="nonzero">
            <g id="footer" transform="translate(-1.000000, 1792.000000)">
                <g id="Group-9" transform="translate(1244.000000, 39.000000)">
                    <g id="Group-7" transform="translate(2.000000, 47.000000)">
                        <g id="icon-facebook" transform="translate(73.000000, 0.000000)">
                            <g id="facebook-sticky">
                                <path d="M20.786,0 L1.214,0 C0.543,0 0,0.543 0,1.214 L0,20.786 C0,21.456 0.543,22 1.214,22 L11.751,22 L11.751,13.48 L8.884,13.48 L8.884,10.16 L11.751,10.16 L11.751,7.712 C11.751,4.87 13.486,3.323 16.021,3.323 C17.235,3.323 18.279,3.413 18.583,3.454 L18.583,6.424 L16.825,6.425 C15.446,6.425 15.18,7.08 15.18,8.041 L15.18,10.161 L18.468,10.161 L18.04,13.481 L15.18,13.481 L15.18,22 L20.786,22 C21.456,22 22,21.456 22,20.786 L22,1.214 C22,0.543 21.456,0 20.786,0 L20.786,0 Z" id="Path"></path>
                            </g>
                        </g>
                    </g>
                </g>
            </g>
        </g>
    </g>
</svg>