<?xml version="1.0" encoding="UTF-8"?>
<svg width="22px" height="22px" viewBox="0 0 22 22" version="1.1" xmlns="http://www.w3.org/2000/svg" xmlns:xlink="http://www.w3.org/1999/xlink">
    <!-- Generator: sketchtool 60.1 (101010) - https://sketch.com -->
    <title>2DF4FD6D-BEE3-4C5C-841E-BAED64175B7F</title>
    <desc>Created with sketchtool.</desc>
    <g id="Floreta-Web-Site" stroke="none" stroke-width="1" fill="none" fill-rule="evenodd">
        <g id="01---Floresta-/-Inicio" transform="translate(-1286.000000, -1878.000000)" fill="#999999" fill-rule="nonzero">
            <g id="footer" transform="translate(-1.000000, 1792.000000)">
                <g id="Group-9" transform="translate(1244.000000, 39.000000)">
                    <g id="Group-7" transform="translate(2.000000, 47.000000)">
                        <g id="icon-instagram" transform="translate(41.000000, 0.000000)">
                            <g id="instagram-sticky">
                                <path d="M11,1.982 C13.937,1.982 14.285,1.993 15.445,2.046 C16.517,2.095 17.1,2.274 17.488,2.425 C18.001,2.625 18.368,2.863 18.753,3.248 C19.138,3.633 19.376,3.999 19.576,4.513 C19.727,4.901 19.906,5.483 19.955,6.556 C20.008,7.716 20.019,8.064 20.019,11.001 C20.019,13.938 20.008,14.286 19.955,15.446 C19.906,16.518 19.727,17.101 19.576,17.489 C19.376,18.002 19.138,18.369 18.753,18.754 C18.368,19.139 18.002,19.377 17.488,19.577 C17.1,19.728 16.518,19.907 15.445,19.956 C14.285,20.009 13.937,20.02 11,20.02 C8.063,20.02 7.715,20.009 6.555,19.956 C5.483,19.907 4.9,19.728 4.512,19.577 C3.999,19.377 3.632,19.139 3.247,18.754 C2.862,18.369 2.624,18.003 2.424,17.489 C2.273,17.101 2.094,16.519 2.045,15.446 C1.993,14.285 1.982,13.937 1.982,11 C1.982,8.063 1.993,7.715 2.046,6.555 C2.095,5.483 2.274,4.9 2.425,4.513 C2.625,4 2.863,3.633 3.248,3.248 C3.633,2.863 3.999,2.625 4.513,2.425 C4.901,2.274 5.483,2.095 6.556,2.046 C7.715,1.993 8.063,1.982 11,1.982 L11,1.982 Z M11,0 C8.013,0 7.638,0.013 6.465,0.066 C5.294,0.119 4.495,0.305 3.795,0.577 C3.071,0.859 2.458,1.235 1.846,1.846 C1.235,2.458 0.859,3.071 0.577,3.795 C0.305,4.495 0.119,5.294 0.066,6.465 C0.013,7.638 0,8.013 0,11 C0,13.987 0.013,14.362 0.066,15.535 C0.119,16.706 0.305,17.505 0.577,18.205 C0.858,18.928 1.234,19.542 1.846,20.153 C2.458,20.765 3.071,21.141 3.794,21.422 C4.494,21.694 5.293,21.88 6.464,21.933 C7.638,21.987 8.013,22 11,22 C13.987,22 14.362,21.987 15.535,21.934 C16.706,21.881 17.505,21.695 18.205,21.423 C18.928,21.142 19.542,20.766 20.153,20.154 C20.765,19.542 21.141,18.929 21.422,18.206 C21.694,17.506 21.88,16.707 21.933,15.536 C21.987,14.362 22,13.987 22,11 C22,8.013 21.987,7.638 21.934,6.465 C21.881,5.294 21.695,4.495 21.423,3.795 C21.142,3.072 20.766,2.458 20.154,1.847 C19.542,1.235 18.929,0.859 18.206,0.578 C17.506,0.306 16.707,0.12 15.536,0.067 C14.362,0.013 13.987,0 11,0 L11,0 Z" id="Shape"></path>
                                <path d="M11,5.351 C7.88,5.351 5.351,7.88 5.351,11 C5.351,14.12 7.88,16.649 11,16.649 C14.12,16.649 16.649,14.12 16.649,11 C16.649,7.88 14.12,5.351 11,5.351 Z M11,14.667 C8.975,14.667 7.333,13.025 7.333,11 C7.333,8.975 8.975,7.333 11,7.333 C13.025,7.333 14.667,8.975 14.667,11 C14.667,13.025 13.025,14.667 11,14.667 Z" id="Shape"></path>
                                <circle id="Oval" cx="16.872" cy="5.128" r="1.32"></circle>
                            </g>
                        </g>
                    </g>
                </g>
            </g>
        </g>
    </g>
</svg>