<?xml version="1.0" encoding="UTF-8"?>
<svg width="31px" height="22px" viewBox="0 0 31 22" version="1.1" xmlns="http://www.w3.org/2000/svg" xmlns:xlink="http://www.w3.org/1999/xlink">
    <!-- Generator: sketchtool 60.1 (101010) - https://sketch.com -->
    <title>9AA50EE1-0593-4069-8C51-BDE5BEEA63C7</title>
    <desc>Created with sketchtool.</desc>
    <g id="Floreta-Web-Site" stroke="none" stroke-width="1" fill="none" fill-rule="evenodd">
        <g id="01---Floresta-/-Inicio" transform="translate(-1245.000000, -1878.000000)" fill-rule="nonzero">
            <g id="footer" transform="translate(-1.000000, 1792.000000)">
                <g id="Group-9" transform="translate(1244.000000, 39.000000)">
                    <g id="Group-7" transform="translate(2.000000, 47.000000)">
                        <g id="icon-youtube">
                            <g id="youtube-sticky">
                                <polyline id="Path" fill="#FFFFFF" points="19.584 11.118 19.583 11.117 20.614 10.583 19.584 11.118"></polyline>
                                <path d="M12.3,14.923 L12.299,6.213 L20.675,10.583 L12.3,14.923 L12.3,14.923 Z M30.69,4.704 C30.69,4.704 30.387,2.568 29.458,1.627 C28.279,0.392 26.958,0.386 26.352,0.314 C22.014,0 15.507,0 15.507,0 L15.494,0 C15.494,0 8.987,0 4.649,0.314 C4.042,0.386 2.721,0.392 1.542,1.627 C0.612,2.567 0.31,4.704 0.31,4.704 C0.31,4.704 0,7.212 0,9.721 L0,12.073 C0,14.582 0.31,17.09 0.31,17.09 C0.31,17.09 0.612,19.226 1.542,20.167 C2.721,21.402 4.27,21.363 4.96,21.492 C7.44,21.73 15.5,21.803 15.5,21.803 C15.5,21.803 22.014,21.793 26.352,21.48 C26.958,21.408 28.279,21.402 29.458,20.167 C30.388,19.226 30.69,17.09 30.69,17.09 C30.69,17.09 31,14.581 31,12.073 L31,9.721 C31,7.212 30.69,4.704 30.69,4.704 L30.69,4.704 Z" id="Shape" fill="#999999"></path>
                            </g>
                        </g>
                    </g>
                </g>
            </g>
        </g>
    </g>
</svg>